HIERARCHY
ROOT Hips
{
  OFFSET -125.086 92.215 135.881
  CHANNELS 6 Xposition Yposition Zposition Zrotation Xrotation Yrotation
  JOINT LeftUpLeg
  {
    OFFSET 8.64259 1.95398 -2.38835
    CHANNELS 3 Zrotation Xrotation Yrotation
    JOINT LeftLeg
    {
      OFFSET 43.7702 0 0
      CHANNELS 3 Zrotation Xrotation Yrotation
      JOINT LeftFoot
      {
        OFFSET 40.6238 0 0
        CHANNELS 3 Zrotation Xrotation Yrotation
        JOINT LeftToeBase
        {
          OFFSET 12.7242 0 0
          CHANNELS 3 Zrotation Xrotation Yrotation
          End Site
          {
            OFFSET 0 0 0
          }
        }
      }
    }
  }
  JOINT RightUpLeg
  {
    OFFSET -8.2249 1.95398 -2.59336
    CHANNELS 3 Zrotation Xrotation Yrotation
    JOINT RightLeg
    {
      OFFSET 43.5653 0 0
      CHANNELS 3 Zrotation Xrotation Yrotation
      JOINT RightFoot
      {
        OFFSET 40.6238 0 0
        CHANNELS 3 Zrotation Xrotation Yrotation
        JOINT RightToeBase
        {
          OFFSET 12.7242 0 0
          CHANNELS 3 Zrotation Xrotation Yrotation
          End Site
          {
            OFFSET 0 0 0
          }
        }
      }
    }
  }
  JOINT Spine
  {
    OFFSET 0.165834 0.87714 6.61349
    CHANNELS 3 Zrotation Xrotation Yrotation
    JOINT Spine1
    {
      OFFSET 7.38963 1.71661e-005 0
      CHANNELS 3 Zrotation Xrotation Yrotation
      JOINT Spine2
      {
        OFFSET 11.9445 1.14441e-005 0
        CHANNELS 3 Zrotation Xrotation Yrotation
        JOINT Spine3
        {
          OFFSET 14.7254 4.19617e-005 0
          CHANNELS 3 Zrotation Xrotation Yrotation
          JOINT Spine4
          {
            OFFSET 10.9679 0 0
            CHANNELS 3 Zrotation Xrotation Yrotation
            JOINT RightShoulder
            {
              OFFSET 2.46616 -1.6653 3.69651
              CHANNELS 3 Zrotation Xrotation Yrotation
              JOINT RightArm
              {
                OFFSET 13.0012 0 0
                CHANNELS 3 Zrotation Xrotation Yrotation
                JOINT RightForeArm
                {
                  OFFSET 28.7848 1.52588e-005 0
                  CHANNELS 3 Zrotation Xrotation Yrotation
                  JOINT RightHand
                  {
                    OFFSET 26.5688 1.52588e-005 0
                    CHANNELS 3 Zrotation Xrotation Yrotation
                    End Site
                    {
                      OFFSET 0 0 0
                    }
                  }
                }
              }
            }
            JOINT LeftShoulder
            {
              OFFSET 2.38034 -1.29275 -3.7523
              CHANNELS 3 Zrotation Xrotation Yrotation
              JOINT LeftArm
              {
                OFFSET 16.3182 6.10352e-005 0
                CHANNELS 3 Zrotation Xrotation Yrotation
                JOINT LeftForeArm
                {
                  OFFSET 27.0901 0 0
                  CHANNELS 3 Zrotation Xrotation Yrotation
                  JOINT LeftHand
                  {
                    OFFSET 24.5451 1.52588e-005 0
                    CHANNELS 3 Zrotation Xrotation Yrotation
                    End Site
                    {
                      OFFSET 0 0 0
                    }
                  }
                }
              }
            }
            JOINT Neck
            {
              OFFSET 5.0226 -0.0266342 0
              CHANNELS 3 Zrotation Xrotation Yrotation
              JOINT Head
              {
                OFFSET 6.69363 2.86102e-005 0
                CHANNELS 3 Zrotation Xrotation Yrotation
                End Site
                {
                  OFFSET 0 0 0
                }
              }
            }
          }
        }
      }
    }
  }
}
MOTION
Frames:	12
Frame Time:	0.0416667
84.2662 93.4626 4.63597 -106.649 -46.6327 -103.549 -176.767 11.2949 86.1712 -35.8307 18.307 3.05548 61.8129 4.25007 13.2747 42.4334 -1.16526 -0.3375 170.697 18.8032 85.4204 -75.4735 -9.27362 -1.57538 46.4486 3.92596 17.6017 38.669 -1.52592 -1.39983 -0.242117 8.41151 -89.6058 10.0512 -0.302965 0.807669 -1.61994 -0.267121 0.820217 -24.1539 -0.531695 0.679289 -4.14121 -0.531711 0.679282 109.938 -52.1202 -70.3756 33.7012 -0.345056 -12.9121 -2.75718 -41.1157 -13.3688 -6.86514 -0.402395 1.77291 -73.1137 -49.6265 104.092 -39.1259 -12.4413 -24.9409 10.3042 64.8294 -4.83996 -9.14812 0.00322313 -5.95343 -4.89898 -3.92688 -2.27092 -22.7842 -3.72235 0.042391 
79.8634 94.6279 9.2523 -105.037 -44.3115 -101.721 -175.603 5.75739 87.0131 -32.653 15.4975 2.6332 64.3707 5.55961 12.0291 42.3287 -1.15037 1.26104 169.98 22.8513 86.4657 -61.6174 -8.24975 0.495414 54.0924 1.43955 17.3642 42.9567 -2.1971 -0.18941 -0.606321 8.29788 -89.617 10.2817 -1.03281 0.849674 -1.38914 -0.994428 0.894303 -23.9267 -1.24044 0.499969 -3.91404 -1.24043 0.499961 110.097 -52.276 -70.1572 32.7391 0.671468 -9.58167 -3.21888 -39.1261 -14.155 -7.3313 -0.402793 1.32625 -73.7623 -47.9419 103.225 -38.6545 -7.79808 -32.3683 13.0244 56.2446 -9.67433 -6.26156 -0.0342235 -6.04649 -5.82512 -5.80773 -0.777882 -21.7513 -4.90892 -5.34367 
75.5493 95.5241 13.2928 -102.761 -40.5785 -100.071 -174.695 0.389572 86.6767 -27.0955 12.5058 1.67081 64.169 6.19445 12.4783 44.2145 -1.26161 3.65454 167.997 19.7259 86.7754 -36.1208 5.69042 4.80538 56.3991 0.516332 14.2919 54.6702 -3.89974 1.31291 -0.781946 8.10099 -89.6163 10.6772 -1.38034 0.888307 -0.9933 -1.3399 0.948196 -23.5337 -1.5835 0.432316 -3.521 -1.58347 0.432322 110.25 -52.3292 -69.9339 32.3447 2.60876 -8.32501 -3.44621 -38.5757 -13.5147 -7.06741 -0.421831 1.93657 -74.6257 -46.5452 101.965 -35.4739 -4.56785 -36.4755 15.4996 45.6791 -18.2457 -4.65647 -0.0566126 -6.10517 -6.09238 -7.67001 0.668803 -21.0308 -6.32066 -9.43001 
70.8298 95.8334 16.7621 -99.4376 -34.0668 -98.8669 -174.404 -3.64966 85.8561 -24.2523 9.40411 0.40131 61.9987 6.16194 12.4592 51.6404 -1.2644 7.79715 168.941 16.1848 87.4985 -22.3363 27.3192 8.39255 56.2102 2.41596 10.1 43.8483 -2.34852 -2.77698 -0.621482 7.72443 -89.5822 11.4288 -1.04148 0.936947 -0.242113 -0.999231 0.981869 -22.7793 -1.27491 0.580611 -2.76669 -1.2749 0.580608 110.067 -52.2514 -70.1997 32.185 4.38418 -7.70092 -4.01694 -39.0198 -12.6545 -6.07318 -0.319192 1.01978 -74.2815 -46.0386 102.543 -32.7613 -3.11183 -37.9699 17.8662 39.2367 -26.6167 -2.23065 -0.0896593 -5.25766 -5.9649 -8.78448 2.52124 -21.0911 -7.28315 -11.4988 
65.8434 95.1064 20.4881 -98.4313 -26.2038 -97.8109 -174.388 -1.11297 85.1322 -36.4804 6.25932 0.276423 57.4493 4.02986 6.65549 62.56 -0.839446 11.2638 170.183 17.3487 88.8423 -29.3224 22.4855 7.26965 62.3419 2.09561 6.42853 35.9444 -0.974622 -4.13794 -0.260362 7.63436 -89.7711 11.6059 -0.410674 0.498778 -0.0651043 -0.388343 0.516359 -22.6003 -0.541583 0.352297 -2.58769 -0.541611 0.352286 110.185 -52.3601 -70.0367 31.8458 4.70433 -9.26235 -3.39228 -39.4669 -11.4051 -5.88207 -0.346108 1.83406 -73.8329 -46.878 103.195 -30.6778 -2.64895 -36.411 21.0932 39.0082 -33.7659 -2.24832 -0.093641 -7.24627 -4.71848 -8.59108 3.85323 -20.5905 -7.2242 -11.9093 
61.2171 94.0913 22.8728 -98.4405 -20.1529 -95.0512 -170.898 11.2328 87.043 -60.2044 4.22822 0.568712 48.7831 -0.365556 0.711213 60.1345 -1.52682 7.37464 171.544 17.6388 91.1236 -37.3251 19.0718 6.76568 66.4171 2.40428 9.16186 33.3467 -0.341908 -6.42383 -0.12089 7.63983 -90.2378 11.5932 -0.351767 -0.439568 -0.0777674 -0.370795 -0.423667 -22.6125 -0.203413 -0.524967 -2.59982 -0.203413 -0.524976 110.024 -52.0023 -70.2272 30.6104 3.04452 -11.328 -4.32498 -38.0338 -14.2149 -6.56633 -0.360869 1.32184 -74.6606 -45.7253 101.96 -33.4982 -0.781392 -31.1203 21.4153 39.8038 -35.1404 -1.17932 -0.115859 -6.91221 -5.92384 -9.3583 1.76928 -19.239 -7.92045 -11.9402 
56.9666 94.1028 24.98 -99.7834 -10.8828 -95.3339 -175.256 17.8865 88.9413 -66.6615 1.20224 2.62988 49.8804 1.58519 6.47967 53.4801 -1.09427 9.84112 172.584 14.0133 92.178 -38.6958 12.2199 5.35168 69.0017 0.794267 7.94315 29.8624 0.365122 -6.17864 -0.0599914 7.85748 -90.4072 11.1569 -0.308343 -0.778839 -0.514221 -0.342316 -0.764524 -23.0474 -0.0600438 -0.835506 -3.03472 -0.0600133 -0.835497 110.609 -52.6507 -69.4431 28.945 -0.574239 -15.5632 -4.53194 -34.8517 -18.1715 -8.34942 -0.423808 0.745035 -74.0114 -47.0976 102.895 -33.9194 -0.370464 -25.3063 22.2027 45.4464 -35.739 -4.45082 -0.022464 -8.08314 -6.98198 -10.9565 1.42088 -19.4908 -8.86378 -16.2781 
52.7485 94.9057 26.7409 -98.0536 2.52656 -90.6069 179.08 19.5119 88.5074 -55.5409 2.43841 4.46342 53.0562 3.67237 8.52962 55.364 -0.964307 10.9833 174.724 11.6791 92.4307 -36.5085 4.28698 2.31956 70.6814 -1.339 8.78744 28.5726 0.546669 -5.05818 0.162047 7.75919 -90.3717 11.3554 0.149339 -0.755145 -0.315796 0.115942 -0.760996 -22.8496 0.36938 -0.675365 -2.83691 0.369366 -0.675368 110.099 -51.9787 -70.111 29.2451 -4.9802 -17.6119 -6.17594 -32.0063 -24.5713 -8.86935 -0.390586 -0.0520338 -72.4142 -49.2954 105.191 -36.5045 -4.59255 -17.1668 24.9075 53.1661 -33.8633 -9.90801 0.209878 -8.88721 -7.86353 -13.0616 3.49221 -20.1666 -10.3737 -20.915 
48.7312 95.7552 28.139 -95.0743 17.2035 -91.6475 174.019 16.7846 90.2824 -33.7626 10.1998 7.25017 54.6229 4.75039 7.55854 58.4051 -0.505243 13.9754 176.666 11.0747 92.0897 -33.8193 -4.77823 -0.43511 70.5599 -2.0878 11.9392 29.6003 0.356727 -5.28313 0.29213 7.56074 -90.3853 11.7532 0.400055 -0.810358 0.0820793 0.364051 -0.827187 -22.4521 0.62513 -0.652657 -2.43949 0.625127 -0.652667 109.661 -51.2509 -70.6705 28.713 -9.64168 -19.9793 -7.43005 -33.1651 -28.571 -8.78765 -0.338374 -0.738263 -70.9217 -51.0819 107.256 -40.1921 -11.379 -10.0486 22.4625 58.8065 -24.168 -13.4573 0.307423 -8.46908 -5.51754 -13.6106 6.133 -21.471 -10.5209 -23.7152 
44.5915 95.9942 28.5324 -92.1018 29.6579 -90.7992 173.257 12.4813 93.8488 -13.3625 28.0416 8.27184 56.1167 5.73673 5.16047 57.4456 -0.419022 14.8882 178.046 10.6274 92.1708 -31.5906 -11.5929 -2.06199 71.3131 -2.94816 14.8245 27.7301 0.632162 -4.39239 0.345698 7.46828 -90.4417 11.9386 0.479319 -0.932629 0.267441 0.437779 -0.95282 -22.2666 0.737426 -0.745477 -2.25392 0.737422 -0.745471 110.149 -51.8762 -70.0198 27.5798 -11.4492 -21.2787 -7.01186 -32.4309 -29.5519 -9.97257 -0.463044 0.231828 -71.2546 -51.1626 106.749 -43.9667 -16.46 -9.7997 16.6176 72.929 -10.6382 -16.5607 0.629342 -10.2092 -3.24251 -13.3182 4.04687 -21.2852 -10.6005 -20.6465 
40.0112 95.7592 28.0992 -91.2726 39.7258 -90.3204 176.647 11.3764 92.8564 -11.8843 31.4856 10.7514 58.8267 3.96596 -0.588856 56.4158 -0.6816 13.1499 179.95 9.49513 92.2762 -32.8783 -16.9245 -5.0753 72.4222 -3.86052 15.3996 26.385 0.637818 -2.07202 0.306801 7.62573 -90.3439 11.6231 0.44916 -0.732162 -0.0480253 0.416506 -0.751216 -22.5827 0.648445 -0.563323 -2.57001 0.648435 -0.563324 109.86 -51.7705 -70.4427 28.6374 -9.69315 -20.564 -4.61824 -30.5011 -26.0411 -10.4695 -0.516503 0.454957 -71.974 -50.6299 105.726 -45.4254 -18.4104 -12.8145 7.16051 80.1859 2.43387 -10.6538 0.258486 -8.86712 -3.55523 -12.0485 2.02423 -19.4567 -9.76075 -18.2564 
35.168 94.9214 26.9879 -92.3582 45.2897 -89.5355 175.101 11.6692 92.0999 -19.9768 29.6942 9.18837 56.7991 4.24938 4.37176 53.6509 -1.03076 10.6142 -177.577 8.1229 92.0299 -37.8008 -17.706 -8.22354 74.8022 -4.95197 15.7418 31.2434 -0.201075 -2.7823 0.0435022 7.78335 -90.1488 11.3073 0.0170971 -0.29808 -0.363647 0.0039709 -0.298556 -22.8985 0.105916 -0.279156 -2.88591 0.10589 -0.279171 110.605 -52.4222 -69.414 28.2734 -6.69002 -16.9588 -3.3548 -28.3285 -23.5581 -11.9376 -0.713681 1.83479 -73.0102 -49.0464 104.3 -41.8916 -15.4001 -13.6797 15.1961 70.8087 -9.23675 -5.35411 -0.0216886 -7.12027 -4.76156 -10.8247 0.521525 -18.6231 -8.84289 -15.6928 
